<mxfile host="Electron" modified="2024-05-29T12:26:30.960Z" agent="Mozilla/5.0 (Windows NT 10.0; Win64; x64) AppleWebKit/537.36 (KHTML, like Gecko) draw.io/24.4.8 Chrome/124.0.6367.207 Electron/30.0.6 Safari/537.36" etag="V1EyDfMpLq5he3raf9Ly" version="24.4.8" type="device">
  <diagram name="Страница — 1" id="EjxZLcEnjb4tN896XDfF">
    <mxGraphModel dx="2193" dy="804" grid="1" gridSize="10" guides="1" tooltips="1" connect="1" arrows="1" fold="1" page="1" pageScale="1" pageWidth="827" pageHeight="1169" math="0" shadow="0">
      <root>
        <mxCell id="0" />
        <mxCell id="1" parent="0" />
        <mxCell id="k3_Q_UVZk17oWLFg3Xh_-11" value="" style="rounded=0;whiteSpace=wrap;html=1;" parent="1" vertex="1">
          <mxGeometry x="-750" y="350" width="380" height="140" as="geometry" />
        </mxCell>
        <mxCell id="k3_Q_UVZk17oWLFg3Xh_-20" value="" style="edgeStyle=orthogonalEdgeStyle;rounded=0;orthogonalLoop=1;jettySize=auto;html=1;" parent="1" source="k3_Q_UVZk17oWLFg3Xh_-1" target="k3_Q_UVZk17oWLFg3Xh_-4" edge="1">
          <mxGeometry relative="1" as="geometry" />
        </mxCell>
        <mxCell id="k3_Q_UVZk17oWLFg3Xh_-1" value="&lt;font style=&quot;font-size: 16px;&quot;&gt;Бинарный класс-файл&lt;/font&gt;" style="rounded=1;whiteSpace=wrap;html=1;arcSize=50;" parent="1" vertex="1">
          <mxGeometry x="-640" y="40" width="160" height="40" as="geometry" />
        </mxCell>
        <mxCell id="k3_Q_UVZk17oWLFg3Xh_-19" value="" style="edgeStyle=orthogonalEdgeStyle;rounded=0;orthogonalLoop=1;jettySize=auto;html=1;" parent="1" source="k3_Q_UVZk17oWLFg3Xh_-2" target="k3_Q_UVZk17oWLFg3Xh_-5" edge="1">
          <mxGeometry relative="1" as="geometry" />
        </mxCell>
        <mxCell id="k3_Q_UVZk17oWLFg3Xh_-2" value="&lt;span style=&quot;font-size: 16px;&quot;&gt;Система адаптации&lt;/span&gt;" style="rounded=1;whiteSpace=wrap;html=1;arcSize=50;" parent="1" vertex="1">
          <mxGeometry x="-440" y="40" width="160" height="40" as="geometry" />
        </mxCell>
        <mxCell id="k3_Q_UVZk17oWLFg3Xh_-16" value="" style="edgeStyle=orthogonalEdgeStyle;rounded=0;orthogonalLoop=1;jettySize=auto;html=1;" parent="1" source="k3_Q_UVZk17oWLFg3Xh_-3" target="k3_Q_UVZk17oWLFg3Xh_-6" edge="1">
          <mxGeometry relative="1" as="geometry" />
        </mxCell>
        <mxCell id="k3_Q_UVZk17oWLFg3Xh_-3" value="&lt;font style=&quot;font-size: 16px;&quot;&gt;Бинарный файл с модификациями&lt;/font&gt;" style="rounded=1;whiteSpace=wrap;html=1;arcSize=50;" parent="1" vertex="1">
          <mxGeometry x="-440" y="200" width="160" height="40" as="geometry" />
        </mxCell>
        <mxCell id="k3_Q_UVZk17oWLFg3Xh_-21" value="" style="edgeStyle=orthogonalEdgeStyle;rounded=0;orthogonalLoop=1;jettySize=auto;html=1;" parent="1" source="k3_Q_UVZk17oWLFg3Xh_-4" target="k3_Q_UVZk17oWLFg3Xh_-6" edge="1">
          <mxGeometry relative="1" as="geometry" />
        </mxCell>
        <mxCell id="k3_Q_UVZk17oWLFg3Xh_-4" value="&lt;font style=&quot;font-size: 16px;&quot;&gt;Загрузчик классов&lt;/font&gt;" style="rounded=0;whiteSpace=wrap;html=1;" parent="1" vertex="1">
          <mxGeometry x="-640" y="120" width="160" height="40" as="geometry" />
        </mxCell>
        <mxCell id="k3_Q_UVZk17oWLFg3Xh_-17" value="" style="edgeStyle=orthogonalEdgeStyle;rounded=0;orthogonalLoop=1;jettySize=auto;html=1;" parent="1" source="k3_Q_UVZk17oWLFg3Xh_-5" target="k3_Q_UVZk17oWLFg3Xh_-3" edge="1">
          <mxGeometry relative="1" as="geometry" />
        </mxCell>
        <mxCell id="k3_Q_UVZk17oWLFg3Xh_-5" value="&lt;font style=&quot;font-size: 16px;&quot;&gt;Компиляция файла с модификациями&lt;/font&gt;" style="rounded=0;whiteSpace=wrap;html=1;" parent="1" vertex="1">
          <mxGeometry x="-440" y="120" width="160" height="40" as="geometry" />
        </mxCell>
        <mxCell id="k3_Q_UVZk17oWLFg3Xh_-22" value="" style="edgeStyle=orthogonalEdgeStyle;rounded=0;orthogonalLoop=1;jettySize=auto;html=1;" parent="1" source="k3_Q_UVZk17oWLFg3Xh_-6" target="k3_Q_UVZk17oWLFg3Xh_-7" edge="1">
          <mxGeometry relative="1" as="geometry" />
        </mxCell>
        <mxCell id="k3_Q_UVZk17oWLFg3Xh_-6" value="&lt;font style=&quot;font-size: 16px;&quot;&gt;Модификатор&lt;/font&gt;" style="rounded=0;whiteSpace=wrap;html=1;" parent="1" vertex="1">
          <mxGeometry x="-640" y="200" width="160" height="40" as="geometry" />
        </mxCell>
        <mxCell id="k3_Q_UVZk17oWLFg3Xh_-14" style="edgeStyle=orthogonalEdgeStyle;rounded=0;orthogonalLoop=1;jettySize=auto;html=1;exitX=0.75;exitY=1;exitDx=0;exitDy=0;entryX=0.5;entryY=0;entryDx=0;entryDy=0;" parent="1" source="k3_Q_UVZk17oWLFg3Xh_-7" target="k3_Q_UVZk17oWLFg3Xh_-9" edge="1">
          <mxGeometry relative="1" as="geometry" />
        </mxCell>
        <mxCell id="k3_Q_UVZk17oWLFg3Xh_-15" style="edgeStyle=orthogonalEdgeStyle;rounded=0;orthogonalLoop=1;jettySize=auto;html=1;exitX=0.25;exitY=1;exitDx=0;exitDy=0;entryX=0.5;entryY=0;entryDx=0;entryDy=0;" parent="1" source="k3_Q_UVZk17oWLFg3Xh_-7" target="k3_Q_UVZk17oWLFg3Xh_-8" edge="1">
          <mxGeometry relative="1" as="geometry" />
        </mxCell>
        <mxCell id="k3_Q_UVZk17oWLFg3Xh_-7" value="&lt;font style=&quot;font-size: 16px;&quot;&gt;Верификатор&lt;/font&gt;" style="rounded=0;whiteSpace=wrap;html=1;" parent="1" vertex="1">
          <mxGeometry x="-640" y="280" width="160" height="40" as="geometry" />
        </mxCell>
        <mxCell id="k3_Q_UVZk17oWLFg3Xh_-13" style="edgeStyle=orthogonalEdgeStyle;rounded=0;orthogonalLoop=1;jettySize=auto;html=1;exitX=0.5;exitY=1;exitDx=0;exitDy=0;entryX=0.25;entryY=0;entryDx=0;entryDy=0;" parent="1" source="k3_Q_UVZk17oWLFg3Xh_-8" target="k3_Q_UVZk17oWLFg3Xh_-10" edge="1">
          <mxGeometry relative="1" as="geometry" />
        </mxCell>
        <mxCell id="k3_Q_UVZk17oWLFg3Xh_-8" value="&lt;font style=&quot;font-size: 16px;&quot;&gt;Интерпретатор&lt;/font&gt;" style="rounded=0;whiteSpace=wrap;html=1;" parent="1" vertex="1">
          <mxGeometry x="-740" y="360" width="160" height="40" as="geometry" />
        </mxCell>
        <mxCell id="k3_Q_UVZk17oWLFg3Xh_-12" style="edgeStyle=orthogonalEdgeStyle;rounded=0;orthogonalLoop=1;jettySize=auto;html=1;exitX=0.5;exitY=1;exitDx=0;exitDy=0;entryX=0.75;entryY=0;entryDx=0;entryDy=0;" parent="1" source="k3_Q_UVZk17oWLFg3Xh_-9" target="k3_Q_UVZk17oWLFg3Xh_-10" edge="1">
          <mxGeometry relative="1" as="geometry" />
        </mxCell>
        <mxCell id="k3_Q_UVZk17oWLFg3Xh_-9" value="&lt;font style=&quot;font-size: 16px;&quot;&gt;JIT компилятор&lt;/font&gt;" style="rounded=0;whiteSpace=wrap;html=1;" parent="1" vertex="1">
          <mxGeometry x="-540" y="360" width="160" height="40" as="geometry" />
        </mxCell>
        <mxCell id="k3_Q_UVZk17oWLFg3Xh_-10" value="&lt;font style=&quot;font-size: 16px;&quot;&gt;Система времени исполнения&lt;/font&gt;" style="rounded=0;whiteSpace=wrap;html=1;" parent="1" vertex="1">
          <mxGeometry x="-640" y="440" width="160" height="40" as="geometry" />
        </mxCell>
      </root>
    </mxGraphModel>
  </diagram>
</mxfile>
